<svg xmlns="http://www.w3.org/2000/svg" xmlns:xlink="http://www.w3.org/1999/xlink" width="975" zoomAndPan="magnify" viewBox="0 0 731.25 142.499996" height="190" preserveAspectRatio="xMidYMid meet" version="1.0"><defs><g/><clipPath id="3673ecd873"><rect x="0" width="708" y="0" height="142"/></clipPath></defs><g transform="matrix(1, 0, 0, 1, 11, 0)"><g clip-path="url(#3673ecd873)"><g fill="#000000" fill-opacity="1"><g transform="translate(0.70098, 118.434742)"><g><path d="M 4.4375 -100.171875 L 31.59375 -100.171875 C 38.90625 -100.171875 44.210938 -98.378906 47.515625 -94.796875 C 50.816406 -91.222656 52.46875 -85.394531 52.46875 -77.3125 L 52.46875 -72.875 C 52.46875 -63.3125 49.050781 -57.597656 42.21875 -55.734375 C 46.414062 -54.648438 49.367188 -52.125 51.078125 -48.15625 C 52.785156 -44.195312 53.640625 -38.953125 53.640625 -32.421875 C 53.640625 -21.765625 52.046875 -13.695312 48.859375 -8.21875 C 45.671875 -2.738281 39.914062 0 31.59375 0 L 4.4375 0 Z M 28.109375 -62.5 C 29.816406 -62.5 30.976562 -63.140625 31.59375 -64.421875 C 32.21875 -65.703125 32.53125 -67.507812 32.53125 -69.84375 L 32.53125 -79.875 C 32.53125 -83.144531 31.09375 -84.78125 28.21875 -84.78125 L 24.015625 -84.78125 L 24.015625 -62.5 Z M 26 -17.609375 C 31.207031 -17.609375 33.8125 -20.097656 33.8125 -25.078125 L 33.8125 -37.546875 C 33.8125 -40.578125 33.363281 -42.867188 32.46875 -44.421875 C 31.582031 -45.984375 30.007812 -46.765625 27.75 -46.765625 L 24.015625 -46.765625 L 24.015625 -17.71875 Z M 26 -17.609375 "/></g></g></g><g fill="#000000" fill-opacity="1"><g transform="translate(51.656345, 118.434742)"><g><path d="M 4.4375 0 L 4.4375 -100.171875 L 24.484375 -100.171875 L 24.484375 -17.03125 L 45.125 -17.03125 L 45.125 0 Z M 4.4375 0 "/></g></g></g><g fill="#000000" fill-opacity="1"><g transform="translate(93.050165, 118.434742)"><g><path d="M 1.75 0 L 11.421875 -100.171875 L 45.359375 -100.171875 L 54.921875 0 L 35.921875 0 L 34.515625 -16.203125 L 22.390625 -16.203125 L 21.21875 0 Z M 23.90625 -32.1875 L 33 -32.1875 L 28.5625 -83.140625 L 27.640625 -83.140625 Z M 23.90625 -32.1875 "/></g></g></g><g fill="#000000" fill-opacity="1"><g transform="translate(144.705153, 118.434742)"><g><path d="M 27.75 0.9375 C 20.445312 0.9375 14.597656 -1.351562 10.203125 -5.9375 C 5.804688 -10.53125 3.609375 -16.832031 3.609375 -24.84375 L 3.609375 -71.015625 C 3.609375 -80.960938 5.59375 -88.460938 9.5625 -93.515625 C 13.53125 -98.566406 19.75 -101.09375 28.21875 -101.09375 C 35.601562 -101.09375 41.550781 -99.070312 46.0625 -95.03125 C 50.570312 -90.988281 52.828125 -85.160156 52.828125 -77.546875 L 52.828125 -60.28125 L 32.890625 -60.28125 L 32.890625 -75.09375 C 32.890625 -77.96875 32.535156 -79.945312 31.828125 -81.03125 C 31.128906 -82.125 29.925781 -82.671875 28.21875 -82.671875 C 26.425781 -82.671875 25.203125 -82.046875 24.546875 -80.796875 C 23.890625 -79.554688 23.5625 -77.734375 23.5625 -75.328125 L 23.5625 -25.078125 C 23.5625 -22.429688 23.945312 -20.503906 24.71875 -19.296875 C 25.5 -18.085938 26.664062 -17.484375 28.21875 -17.484375 C 31.332031 -17.484375 32.890625 -20.015625 32.890625 -25.078125 L 32.890625 -43.140625 L 53.0625 -43.140625 L 53.0625 -24.25 C 53.0625 -7.457031 44.625 0.9375 27.75 0.9375 Z M 27.75 0.9375 "/></g></g></g><g fill="#000000" fill-opacity="1"><g transform="translate(195.077488, 118.434742)"><g><path d="M 4.4375 0 L 4.4375 -100.171875 L 24.25 -100.171875 L 24.25 -60.046875 L 33.578125 -100.171875 L 53.75 -100.171875 L 42.5625 -54.34375 L 56.09375 0 L 35.328125 0 L 24.375 -48.515625 L 24.375 0 Z M 4.4375 0 "/></g></g></g><g fill="#000000" fill-opacity="1"><g transform="translate(245.216626, 118.434742)"><g><path d="M 12.25 0 L 1.515625 -100.171875 L 21.109375 -100.171875 L 26.703125 -36.96875 L 32.296875 -100.171875 L 50.953125 -100.171875 L 56.328125 -36.96875 L 61.6875 -100.171875 L 81.515625 -100.171875 L 70.546875 0 L 46.53125 0 L 41.515625 -48.28125 L 36.734375 0 Z M 12.25 0 "/></g></g></g><g fill="#000000" fill-opacity="1"><g transform="translate(320.891862, 118.434742)"><g><path d="M 1.75 0 L 11.421875 -100.171875 L 45.359375 -100.171875 L 54.921875 0 L 35.921875 0 L 34.515625 -16.203125 L 22.390625 -16.203125 L 21.21875 0 Z M 23.90625 -32.1875 L 33 -32.1875 L 28.5625 -83.140625 L 27.640625 -83.140625 Z M 23.90625 -32.1875 "/></g></g></g><g fill="#000000" fill-opacity="1"><g transform="translate(372.54685, 118.434742)"><g><path d="M 13.0625 0 L 13.0625 -80.921875 L 1.171875 -80.921875 L 1.171875 -100.171875 L 45.015625 -100.171875 L 45.015625 -80.921875 L 33.109375 -80.921875 L 33.109375 0 Z M 13.0625 0 "/></g></g></g><g fill="#000000" fill-opacity="1"><g transform="translate(413.824056, 118.434742)"><g><path d="M 4.4375 0 L 4.4375 -100.171875 L 44.546875 -100.171875 L 44.546875 -80.8125 L 24.84375 -80.8125 L 24.84375 -61.34375 L 43.734375 -61.34375 L 43.734375 -42.453125 L 24.84375 -42.453125 L 24.84375 -19.46875 L 45.828125 -19.46875 L 45.828125 0 Z M 4.4375 0 "/></g></g></g><g fill="#000000" fill-opacity="1"><g transform="translate(456.966922, 118.434742)"><g><path d="M 4.4375 -100.171875 L 35.21875 -100.171875 C 40.113281 -100.171875 43.898438 -99.0625 46.578125 -96.84375 C 49.265625 -94.625 51.070312 -91.515625 52 -87.515625 C 52.9375 -83.515625 53.40625 -78.40625 53.40625 -72.1875 C 53.40625 -66.507812 52.664062 -62.078125 51.1875 -58.890625 C 49.707031 -55.703125 47.144531 -53.484375 43.5 -52.234375 C 46.53125 -51.617188 48.722656 -50.101562 50.078125 -47.6875 C 51.441406 -45.28125 52.125 -42.015625 52.125 -37.890625 L 51.890625 0 L 32.296875 0 L 32.296875 -39.1875 C 32.296875 -41.976562 31.75 -43.757812 30.65625 -44.53125 C 29.570312 -45.3125 27.59375 -45.703125 24.71875 -45.703125 L 24.71875 0 L 4.4375 0 Z M 29.625 -63.078125 C 32.414062 -63.078125 33.8125 -66.113281 33.8125 -72.1875 C 33.8125 -74.820312 33.691406 -76.800781 33.453125 -78.125 C 33.222656 -79.445312 32.796875 -80.359375 32.171875 -80.859375 C 31.554688 -81.367188 30.664062 -81.625 29.5 -81.625 L 24.84375 -81.625 L 24.84375 -63.078125 Z M 29.625 -63.078125 "/></g></g></g><g fill="#000000" fill-opacity="1"><g transform="translate(507.689079, 118.434742)"><g/></g></g><g fill="#000000" fill-opacity="1"><g transform="translate(530.07647, 118.434742)"><g><path d="M 4.4375 -100.171875 L 35.21875 -100.171875 C 40.113281 -100.171875 43.898438 -99.0625 46.578125 -96.84375 C 49.265625 -94.625 51.070312 -91.515625 52 -87.515625 C 52.9375 -83.515625 53.40625 -78.40625 53.40625 -72.1875 C 53.40625 -66.507812 52.664062 -62.078125 51.1875 -58.890625 C 49.707031 -55.703125 47.144531 -53.484375 43.5 -52.234375 C 46.53125 -51.617188 48.722656 -50.101562 50.078125 -47.6875 C 51.441406 -45.28125 52.125 -42.015625 52.125 -37.890625 L 51.890625 0 L 32.296875 0 L 32.296875 -39.1875 C 32.296875 -41.976562 31.75 -43.757812 30.65625 -44.53125 C 29.570312 -45.3125 27.59375 -45.703125 24.71875 -45.703125 L 24.71875 0 L 4.4375 0 Z M 29.625 -63.078125 C 32.414062 -63.078125 33.8125 -66.113281 33.8125 -72.1875 C 33.8125 -74.820312 33.691406 -76.800781 33.453125 -78.125 C 33.222656 -79.445312 32.796875 -80.359375 32.171875 -80.859375 C 31.554688 -81.367188 30.664062 -81.625 29.5 -81.625 L 24.84375 -81.625 L 24.84375 -63.078125 Z M 29.625 -63.078125 "/></g></g></g><g fill="#000000" fill-opacity="1"><g transform="translate(580.798628, 118.434742)"><g><path d="M 3.5 0 L 3.5 -100.171875 L 22.859375 -100.171875 L 22.859375 0 Z M 3.5 0 "/></g></g></g><g fill="#000000" fill-opacity="1"><g transform="translate(602.369747, 118.434742)"><g><path d="M 25.078125 0.9375 C 17.835938 0.9375 12.445312 -1.609375 8.90625 -6.703125 C 5.375 -11.796875 3.609375 -19.515625 3.609375 -29.859375 L 3.609375 -73 C 3.609375 -82.25 5.664062 -89.242188 9.78125 -93.984375 C 13.90625 -98.722656 20.050781 -101.09375 28.21875 -101.09375 C 34.820312 -101.09375 39.953125 -99.769531 43.609375 -97.125 C 47.265625 -94.488281 49.789062 -90.644531 51.1875 -85.59375 C 52.59375 -80.539062 53.296875 -74.050781 53.296875 -66.125 L 33.703125 -66.125 L 33.703125 -75.09375 C 33.703125 -77.507812 33.367188 -79.375 32.703125 -80.6875 C 32.046875 -82.007812 30.863281 -82.671875 29.15625 -82.671875 C 25.34375 -82.671875 23.4375 -80.1875 23.4375 -75.21875 L 23.4375 -26.703125 C 23.4375 -23.671875 23.820312 -21.375 24.59375 -19.8125 C 25.375 -18.257812 26.738281 -17.484375 28.6875 -17.484375 C 30.625 -17.484375 31.984375 -18.257812 32.765625 -19.8125 C 33.546875 -21.375 33.9375 -23.671875 33.9375 -26.703125 L 33.9375 -41.046875 L 28.5625 -41.046875 L 28.5625 -58.296875 L 53.0625 -58.296875 L 53.0625 0 L 45.015625 0 L 41.625 -8.390625 C 38.050781 -2.171875 32.535156 0.9375 25.078125 0.9375 Z M 25.078125 0.9375 "/></g></g></g><g fill="#000000" fill-opacity="1"><g transform="translate(654.024735, 118.434742)"><g><path d="M 28.21875 0.9375 C 19.125 0.9375 12.554688 -1.316406 8.515625 -5.828125 C 4.472656 -10.335938 2.453125 -17.609375 2.453125 -27.640625 L 2.453125 -37.4375 L 22.15625 -37.4375 L 22.15625 -24.953125 C 22.15625 -19.972656 23.75 -17.484375 26.9375 -17.484375 C 28.726562 -17.484375 29.972656 -18.007812 30.671875 -19.0625 C 31.367188 -20.113281 31.71875 -21.882812 31.71875 -24.375 C 31.71875 -27.632812 31.328125 -30.332031 30.546875 -32.46875 C 29.773438 -34.613281 28.785156 -36.40625 27.578125 -37.84375 C 26.367188 -39.28125 24.210938 -41.515625 21.109375 -44.546875 L 12.484375 -53.171875 C 5.796875 -59.703125 2.453125 -66.929688 2.453125 -74.859375 C 2.453125 -83.410156 4.410156 -89.921875 8.328125 -94.390625 C 12.253906 -98.859375 17.988281 -101.09375 25.53125 -101.09375 C 34.550781 -101.09375 41.039062 -98.703125 45 -93.921875 C 48.96875 -89.140625 50.953125 -81.660156 50.953125 -71.484375 L 30.546875 -71.484375 L 30.4375 -78.359375 C 30.4375 -79.679688 30.066406 -80.726562 29.328125 -81.5 C 28.585938 -82.28125 27.554688 -82.671875 26.234375 -82.671875 C 24.679688 -82.671875 23.515625 -82.242188 22.734375 -81.390625 C 21.960938 -80.535156 21.578125 -79.367188 21.578125 -77.890625 C 21.578125 -74.628906 23.441406 -71.25 27.171875 -67.75 L 38.828125 -56.5625 C 41.546875 -53.914062 43.800781 -51.40625 45.59375 -49.03125 C 47.382812 -46.664062 48.820312 -43.867188 49.90625 -40.640625 C 51 -37.410156 51.546875 -33.582031 51.546875 -29.15625 C 51.546875 -19.28125 49.738281 -11.796875 46.125 -6.703125 C 42.507812 -1.609375 36.539062 0.9375 28.21875 0.9375 Z M 28.21875 0.9375 "/></g></g></g></g></g></svg>