<svg xmlns="http://www.w3.org/2000/svg" xmlns:xlink="http://www.w3.org/1999/xlink" width="975" zoomAndPan="magnify" viewBox="0 0 731.25 142.499996" height="190" preserveAspectRatio="xMidYMid meet" version="1.0"><defs><g/><clipPath id="2d8c0ddb21"><path d="M 0.90625 0 L 729.597656 0 L 729.597656 142 L 0.90625 142 Z M 0.90625 0 " clip-rule="nonzero"/></clipPath><clipPath id="3c4788d259"><path d="M 679 19 L 729.597656 19 L 729.597656 126 L 679 126 Z M 679 19 " clip-rule="nonzero"/></clipPath><clipPath id="3a9c409368"><rect x="0" width="730" y="0" height="142"/></clipPath></defs><g clip-path="url(#2d8c0ddb21)"><g><g clip-path="url(#3a9c409368)"><g fill="#ffffff" fill-opacity="1"><g transform="translate(-1.491603, 124.168653)"><g><path d="M 4.578125 -103.421875 L 32.625 -103.421875 C 40.175781 -103.421875 45.65625 -101.570312 49.0625 -97.875 C 52.476562 -94.1875 54.1875 -88.171875 54.1875 -79.828125 L 54.1875 -75.25 C 54.1875 -65.375 50.65625 -59.472656 43.59375 -57.546875 C 47.925781 -56.429688 50.972656 -53.828125 52.734375 -49.734375 C 54.503906 -45.640625 55.390625 -40.21875 55.390625 -33.46875 C 55.390625 -22.476562 53.742188 -14.148438 50.453125 -8.484375 C 47.160156 -2.828125 41.21875 0 32.625 0 L 4.578125 0 Z M 29.015625 -64.53125 C 30.785156 -64.53125 31.988281 -65.191406 32.625 -66.515625 C 33.269531 -67.847656 33.59375 -69.71875 33.59375 -72.125 L 33.59375 -82.484375 C 33.59375 -85.847656 32.109375 -87.53125 29.140625 -87.53125 L 24.796875 -87.53125 L 24.796875 -64.53125 Z M 26.84375 -18.1875 C 32.226562 -18.1875 34.921875 -20.753906 34.921875 -25.890625 L 34.921875 -38.765625 C 34.921875 -41.898438 34.457031 -44.269531 33.53125 -45.875 C 32.613281 -47.476562 30.988281 -48.28125 28.65625 -48.28125 L 24.796875 -48.28125 L 24.796875 -18.296875 Z M 26.84375 -18.1875 "/></g></g></g><g fill="#ffffff" fill-opacity="1"><g transform="translate(51.364343, 124.168653)"><g><path d="M 4.578125 0 L 4.578125 -103.421875 L 25.28125 -103.421875 L 25.28125 -17.578125 L 46.59375 -17.578125 L 46.59375 0 Z M 4.578125 0 "/></g></g></g><g fill="#ffffff" fill-opacity="1"><g transform="translate(94.347361, 124.168653)"><g><path d="M 1.8125 0 L 11.796875 -103.421875 L 46.84375 -103.421875 L 56.71875 0 L 37.078125 0 L 35.640625 -16.734375 L 23.125 -16.734375 L 21.90625 0 Z M 24.6875 -33.234375 L 34.078125 -33.234375 L 29.5 -85.84375 L 28.53125 -85.84375 Z M 24.6875 -33.234375 "/></g></g></g><g fill="#ffffff" fill-opacity="1"><g transform="translate(147.925713, 124.168653)"><g><path d="M 28.65625 0.96875 C 21.113281 0.96875 15.070312 -1.398438 10.53125 -6.140625 C 6 -10.878906 3.734375 -17.378906 3.734375 -25.640625 L 3.734375 -73.328125 C 3.734375 -83.597656 5.78125 -91.34375 9.875 -96.5625 C 13.96875 -101.78125 20.390625 -104.390625 29.140625 -104.390625 C 36.765625 -104.390625 42.90625 -102.300781 47.5625 -98.125 C 52.21875 -93.957031 54.546875 -87.9375 54.546875 -80.0625 L 54.546875 -62.25 L 33.953125 -62.25 L 33.953125 -77.546875 C 33.953125 -80.515625 33.585938 -82.5625 32.859375 -83.6875 C 32.140625 -84.8125 30.898438 -85.375 29.140625 -85.375 C 27.296875 -85.375 26.03125 -84.726562 25.34375 -83.4375 C 24.664062 -82.15625 24.328125 -80.269531 24.328125 -77.78125 L 24.328125 -25.890625 C 24.328125 -23.160156 24.726562 -21.171875 25.53125 -19.921875 C 26.332031 -18.679688 27.535156 -18.0625 29.140625 -18.0625 C 32.347656 -18.0625 33.953125 -20.671875 33.953125 -25.890625 L 33.953125 -44.546875 L 54.78125 -44.546875 L 54.78125 -25.046875 C 54.78125 -7.703125 46.070312 0.96875 28.65625 0.96875 Z M 28.65625 0.96875 "/></g></g></g><g fill="#ffffff" fill-opacity="1"><g transform="translate(200.179635, 124.168653)"><g><path d="M 4.578125 0 L 4.578125 -103.421875 L 25.046875 -103.421875 L 25.046875 -62.015625 L 34.671875 -103.421875 L 55.5 -103.421875 L 43.953125 -56.109375 L 57.921875 0 L 36.484375 0 L 25.171875 -50.09375 L 25.171875 0 Z M 4.578125 0 "/></g></g></g><g fill="#ffffff" fill-opacity="1"><g transform="translate(252.19277, 124.168653)"><g><path d="M 12.640625 0 L 1.5625 -103.421875 L 21.796875 -103.421875 L 27.578125 -38.171875 L 33.359375 -103.421875 L 52.625 -103.421875 L 58.15625 -38.171875 L 63.6875 -103.421875 L 84.15625 -103.421875 L 72.84375 0 L 48.046875 0 L 42.859375 -49.84375 L 37.921875 0 Z M 12.640625 0 "/></g></g></g><g fill="#ffffff" fill-opacity="1"><g transform="translate(330.573779, 124.168653)"><g><path d="M 1.8125 0 L 11.796875 -103.421875 L 46.84375 -103.421875 L 56.71875 0 L 37.078125 0 L 35.640625 -16.734375 L 23.125 -16.734375 L 21.90625 0 Z M 24.6875 -33.234375 L 34.078125 -33.234375 L 29.5 -85.84375 L 28.53125 -85.84375 Z M 24.6875 -33.234375 "/></g></g></g><g fill="#ffffff" fill-opacity="1"><g transform="translate(384.152155, 124.168653)"><g><path d="M 13.484375 0 L 13.484375 -83.5625 L 1.203125 -83.5625 L 1.203125 -103.421875 L 46.484375 -103.421875 L 46.484375 -83.5625 L 34.203125 -83.5625 L 34.203125 0 Z M 13.484375 0 "/></g></g></g><g fill="#ffffff" fill-opacity="1"><g transform="translate(427.014745, 124.168653)"><g><path d="M 4.578125 0 L 4.578125 -103.421875 L 46 -103.421875 L 46 -83.4375 L 25.640625 -83.4375 L 25.640625 -63.328125 L 45.15625 -63.328125 L 45.15625 -43.828125 L 25.640625 -43.828125 L 25.640625 -20.109375 L 47.3125 -20.109375 L 47.3125 0 Z M 4.578125 0 "/></g></g></g><g fill="#ffffff" fill-opacity="1"><g transform="translate(471.803813, 124.168653)"><g><path d="M 4.578125 -103.421875 L 36.359375 -103.421875 C 41.421875 -103.421875 45.332031 -102.273438 48.09375 -99.984375 C 50.863281 -97.703125 52.726562 -94.492188 53.6875 -90.359375 C 54.65625 -86.222656 55.140625 -80.945312 55.140625 -74.53125 C 55.140625 -68.664062 54.378906 -64.085938 52.859375 -60.796875 C 51.335938 -57.515625 48.6875 -55.226562 44.90625 -53.9375 C 48.039062 -53.300781 50.3125 -51.738281 51.71875 -49.25 C 53.125 -46.757812 53.828125 -43.382812 53.828125 -39.125 L 53.578125 0 L 33.359375 0 L 33.359375 -40.453125 C 33.359375 -43.347656 32.796875 -45.195312 31.671875 -46 C 30.546875 -46.800781 28.5 -47.203125 25.53125 -47.203125 L 25.53125 0 L 4.578125 0 Z M 30.578125 -65.140625 C 33.472656 -65.140625 34.921875 -68.269531 34.921875 -74.53125 C 34.921875 -77.257812 34.800781 -79.304688 34.5625 -80.671875 C 34.320312 -82.035156 33.878906 -82.976562 33.234375 -83.5 C 32.585938 -84.019531 31.664062 -84.28125 30.46875 -84.28125 L 25.640625 -84.28125 L 25.640625 -65.140625 Z M 30.578125 -65.140625 "/></g></g></g><g fill="#ffffff" fill-opacity="1"><g transform="translate(524.418949, 124.168653)"><g/></g></g><g fill="#ffffff" fill-opacity="1"><g transform="translate(547.776492, 124.168653)"><g><path d="M 4.578125 -103.421875 L 36.359375 -103.421875 C 41.421875 -103.421875 45.332031 -102.273438 48.09375 -99.984375 C 50.863281 -97.703125 52.726562 -94.492188 53.6875 -90.359375 C 54.65625 -86.222656 55.140625 -80.945312 55.140625 -74.53125 C 55.140625 -68.664062 54.378906 -64.085938 52.859375 -60.796875 C 51.335938 -57.515625 48.6875 -55.226562 44.90625 -53.9375 C 48.039062 -53.300781 50.3125 -51.738281 51.71875 -49.25 C 53.125 -46.757812 53.828125 -43.382812 53.828125 -39.125 L 53.578125 0 L 33.359375 0 L 33.359375 -40.453125 C 33.359375 -43.347656 32.796875 -45.195312 31.671875 -46 C 30.546875 -46.800781 28.5 -47.203125 25.53125 -47.203125 L 25.53125 0 L 4.578125 0 Z M 30.578125 -65.140625 C 33.472656 -65.140625 34.921875 -68.269531 34.921875 -74.53125 C 34.921875 -77.257812 34.800781 -79.304688 34.5625 -80.671875 C 34.320312 -82.035156 33.878906 -82.976562 33.234375 -83.5 C 32.585938 -84.019531 31.664062 -84.28125 30.46875 -84.28125 L 25.640625 -84.28125 L 25.640625 -65.140625 Z M 30.578125 -65.140625 "/></g></g></g><g fill="#ffffff" fill-opacity="1"><g transform="translate(600.391627, 124.168653)"><g><path d="M 3.609375 0 L 3.609375 -103.421875 L 23.59375 -103.421875 L 23.59375 0 Z M 3.609375 0 "/></g></g></g><g fill="#ffffff" fill-opacity="1"><g transform="translate(622.906405, 124.168653)"><g><path d="M 25.890625 0.96875 C 18.421875 0.96875 12.859375 -1.660156 9.203125 -6.921875 C 5.554688 -12.179688 3.734375 -20.148438 3.734375 -30.828125 L 3.734375 -75.375 C 3.734375 -84.925781 5.859375 -92.148438 10.109375 -97.046875 C 14.367188 -101.941406 20.710938 -104.390625 29.140625 -104.390625 C 35.960938 -104.390625 41.257812 -103.023438 45.03125 -100.296875 C 48.800781 -97.566406 51.410156 -93.59375 52.859375 -88.375 C 54.304688 -83.15625 55.03125 -76.453125 55.03125 -68.265625 L 34.796875 -68.265625 L 34.796875 -77.546875 C 34.796875 -80.035156 34.453125 -81.960938 33.765625 -83.328125 C 33.085938 -84.691406 31.863281 -85.375 30.09375 -85.375 C 26.164062 -85.375 24.203125 -82.800781 24.203125 -77.65625 L 24.203125 -27.578125 C 24.203125 -24.441406 24.601562 -22.070312 25.40625 -20.46875 C 26.207031 -18.863281 27.613281 -18.0625 29.625 -18.0625 C 31.625 -18.0625 33.023438 -18.863281 33.828125 -20.46875 C 34.628906 -22.070312 35.03125 -24.441406 35.03125 -27.578125 L 35.03125 -42.390625 L 29.5 -42.390625 L 29.5 -60.203125 L 54.78125 -60.203125 L 54.78125 0 L 46.484375 0 L 42.984375 -8.671875 C 39.296875 -2.242188 33.597656 0.96875 25.890625 0.96875 Z M 25.890625 0.96875 "/></g></g></g><g clip-path="url(#3c4788d259)"><g fill="#ffffff" fill-opacity="1"><g transform="translate(676.484781, 124.168653)"><g><path d="M 29.140625 0.96875 C 19.742188 0.96875 12.957031 -1.359375 8.78125 -6.015625 C 4.613281 -10.671875 2.53125 -18.175781 2.53125 -28.53125 L 2.53125 -38.65625 L 22.875 -38.65625 L 22.875 -25.765625 C 22.875 -20.628906 24.519531 -18.0625 27.8125 -18.0625 C 29.65625 -18.0625 30.9375 -18.601562 31.65625 -19.6875 C 32.382812 -20.769531 32.75 -22.597656 32.75 -25.171875 C 32.75 -28.535156 32.347656 -31.320312 31.546875 -33.53125 C 30.742188 -35.738281 29.71875 -37.582031 28.46875 -39.0625 C 27.226562 -40.550781 25.003906 -42.863281 21.796875 -46 L 12.890625 -54.90625 C 5.984375 -61.644531 2.53125 -69.109375 2.53125 -77.296875 C 2.53125 -86.128906 4.554688 -92.851562 8.609375 -97.46875 C 12.660156 -102.082031 18.582031 -104.390625 26.375 -104.390625 C 35.6875 -104.390625 42.390625 -101.921875 46.484375 -96.984375 C 50.578125 -92.046875 52.625 -84.320312 52.625 -73.8125 L 31.546875 -73.8125 L 31.421875 -80.90625 C 31.421875 -82.269531 31.039062 -83.351562 30.28125 -84.15625 C 29.519531 -84.96875 28.457031 -85.375 27.09375 -85.375 C 25.488281 -85.375 24.285156 -84.929688 23.484375 -84.046875 C 22.679688 -83.160156 22.28125 -81.957031 22.28125 -80.4375 C 22.28125 -77.0625 24.203125 -73.566406 28.046875 -69.953125 L 40.09375 -58.390625 C 42.90625 -55.660156 45.234375 -53.070312 47.078125 -50.625 C 48.921875 -48.175781 50.40625 -45.285156 51.53125 -41.953125 C 52.65625 -38.628906 53.21875 -34.675781 53.21875 -30.09375 C 53.21875 -19.90625 51.347656 -12.179688 47.609375 -6.921875 C 43.878906 -1.660156 37.722656 0.96875 29.140625 0.96875 Z M 29.140625 0.96875 "/></g></g></g></g></g></g></g></svg>